

Cover:
 
http://ia.media-imdb.com/images/M/MV5BMTUyMzM5OTM5NF5BMl5BanBnXkFtZTcwNTIwMjA3OA@@._V1._SY317_.jpg

Release info:

General
Format                                   : Matroska
Format version                           : Version 2
File size                                : 746 MiB
Duration                                 : 2h 55mn
Overall bit rate                         : 595 Kbps


Video
ID                                       : 1
Format                                   : MPEG-4 Visual
Format profile                           : Advanced Simple@L5
Format settings, BVOP                    : Yes
Format settings, QPel                    : No
Format settings, GMC                     : No warppoints
Format settings, Matrix                  : Custom
Codec ID                                 : V_MS/VFW/FOURCC / XVID
Codec ID/Hint                            : XviD
Duration                                 : 2h 55mn
Bit rate                                 : 455 Kbps
Width                                    : 608 pixels
Height                                   : 240 pixels
Display aspect ratio                     : 2.533
Frame rate mode                          : Constant
Frame rate                               : 23.976 fps
Color space                              : YUV
Chroma subsampling                       : 4:2:0
Bit depth                                : 8 bits
Scan type                                : Progressive
Compression mode                         : Lossy
Bits/(Pixel*Frame)                       : 0.130
Stream size                              : 571 MiB (77%)
Writing library                          : XviD 1.2.1 (UTC 2008-12-04)
Language                                 : Hindi
Default                                  : Yes
Forced                                   : No

Audio
ID                                       : 2
Format                                   : MPEG Audio
Format version                           : Version 1
Format profile                           : Layer 3
Mode                                     : Joint stereo
Mode extension                           : MS Stereo
Muxing mode                              : Header stripping
Codec ID                                 : A_MPEG/L3
Codec ID/Hint                            : MP3
Duration                                 : 2h 55mn
Bit rate mode                            : Constant
Bit rate                                 : 128 Kbps
Channel(s)                               : 2 channels
Sampling rate                            : 44.1 KHz
Compression mode                         : Lossy
Stream size                              : 160 MiB (22%)
Language                                 : Hindi
Default                                  : Yes
Forced                                   : No

Source:
credit to original movie ripper DDR (Thanks)

IMDB Info:

After finding and losing his true love in London, Samar Anand defies death by becoming a bomb disposal expert for the Indian Army. Returning to London after 10 years, he suffers amnesia after an accident. Will he be reunited with his love?

Director: Yash Chopra
Writers: Devika Bhagat (screenplay), Aditya Chopra (screenplay),
Stars: Shah Rukh Khan, Katrina Kaif and Anushka Sharma

Genres: Drama | Romance
 
http://www.imdb.com/title/tt2176013/

Screen Shot:
 
http://www.shotpix.com/images/84412894571567022872.png 
http://www.shotpix.com/images/03289189576671501221.png 
http://www.shotpix.com/images/99692866810569737531.png 
http://www.shotpix.com/images/79005720603531141434.png 
http://www.shotpix.com/images/38128607706287378178.png 
http://www.shotpix.com/images/87395784019803826684.png 
http://www.shotpix.com/images/43472108633417253779.png